<svg xmlns="http://www.w3.org/2000/svg" width="167.78" height="35" viewBox="0 0 167.78 35"><rect class="svg__rect" x="0" y="0" width="73.66" height="35" fill="#31C4F3"/><rect class="svg__rect" x="71.66" y="0" width="96.12" height="35" fill="#389AD5"/><path class="svg__text" d="M16.51 22L13.46 13.47L15.08 13.47L17.22 20.14L19.39 13.47L21.02 13.47L17.95 22L16.51 22ZM24.70 18.00L24.70 18.00L24.70 17.52Q24.70 16.28 25.14 15.32Q25.58 14.37 26.39 13.86Q27.20 13.35 28.24 13.35Q29.28 13.35 30.09 13.85Q30.89 14.35 31.33 15.29Q31.77 16.23 31.78 17.48L31.78 17.48L31.78 17.96Q31.78 19.21 31.34 20.16Q30.91 21.10 30.10 21.61Q29.30 22.12 28.25 22.12L28.25 22.12Q27.21 22.12 26.40 21.61Q25.59 21.10 25.15 20.17Q24.71 19.23 24.70 18.00ZM26.18 17.46L26.18 17.96Q26.18 19.36 26.73 20.13Q27.28 20.90 28.25 20.90L28.25 20.90Q29.23 20.90 29.77 20.15Q30.30 19.40 30.30 17.96L30.30 17.96L30.30 17.51Q30.30 16.09 29.76 15.34Q29.22 14.58 28.24 14.58L28.24 14.58Q27.28 14.58 26.74 15.33Q26.19 16.09 26.18 17.46L26.18 
17.46ZM37.81 22L36.33 22L36.33 13.47L37.81 13.47L37.81 22ZM47.97 22L42.62 22L42.62 13.47L44.10 13.47L44.10 20.82L47.97 20.82L47.97 22ZM52.88 22L51.34 22L54.56 13.47L55.89 13.47L59.12 22L57.57 22L56.87 20.01L53.57 20.01L52.88 22ZM55.22 15.28L53.98 18.82L56.46 18.82L55.22 15.28Z" fill="#FFFFFF"/><path class="svg__text" d="M92.23 22L85.85 22L85.85 13.60L88.23 13.60L88.23 20.11L92.23 20.11L92.23 22ZM98.07 22L95.64 22L99.35 13.60L101.70 13.60L105.41 22L102.95 22L102.28 20.37L98.73 20.37L98.07 22ZM100.51 15.93L99.42 18.61L101.59 18.61L100.51 15.93ZM109.50 18.26L109.50 18.26L109.50 13.60L111.88 13.60L111.88 18.19Q111.88 20.20 113.47 20.20L113.47 20.20Q115.05 20.20 115.05 18.19L115.05 18.19L115.05 13.60L117.39 13.60L117.39 18.26Q117.39 20.13 116.35 21.15Q115.31 22.17 113.45 22.17L113.45 22.17Q111.57 22.17 110.53 21.15Q109.50 20.13 109.50 18.26ZM124.81 22L122.48 22L122.48 13.60L124.44 13.60L128.15 18.07L128.15 13.60L130.47 13.60L130.47 22L128.52 22L124.81 17.52L124.81 22ZM135.21 17.80L135.21 17.80Q135.21 16.54 135.80 15.54Q136.40 14.55 137.45 13.99Q138.51 13.43 139.82 13.43L139.82 13.43Q140.98 13.43 141.90 13.84Q142.82 14.25 143.44 15.02L143.44 15.02L141.93 16.39Q141.11 15.40 139.95 15.40L139.95 15.40Q139.26 15.40 138.73 15.70Q138.20 16 137.90 16.54Q137.60 17.09 137.60 17.80L137.60 17.80Q137.60 18.51 137.90 19.05Q138.20 19.60 138.73 19.90Q139.26 20.20 139.95 20.20L139.95 20.20Q141.11 20.20 141.93 19.22L141.93 19.22L143.44 20.58Q142.83 21.35 141.90 21.76Q140.98 22.17 139.82 22.17L139.82 22.17Q138.51 22.17 137.45 21.61Q136.40 21.05 135.80 20.05Q135.21 19.06 135.21 17.80ZM150.35 22L147.97 22L147.97 13.60L150.35 13.60L150.35 16.76L153.59 16.76L153.59 13.60L155.97 13.60L155.97 22L153.59 22L153.59 18.72L150.35 18.72L150.35 22Z" fill="#FFFFFF" x="84.66"/></svg>